<mxfile host="app.diagrams.net" agent="Mozilla/5.0 (Windows NT 10.0; Win64; x64) AppleWebKit/537.36 (KHTML, like Gecko) Chrome/128.0.0.0 Safari/537.36" version="24.7.12">
  <diagram name="Page-1" id="cyGEGUov2ZOrerP5u_-C">
    <mxGraphModel dx="2353" dy="1199" grid="1" gridSize="10" guides="1" tooltips="1" connect="1" arrows="1" fold="1" page="1" pageScale="1" pageWidth="850" pageHeight="1100" math="0" shadow="0">
      <root>
        <mxCell id="0" />
        <mxCell id="1" parent="0" />
        <mxCell id="aFwNrgKFRGCG29cXAObZ-34" value="" style="rounded=0;whiteSpace=wrap;html=1;fillColor=none;" vertex="1" parent="1">
          <mxGeometry x="80" y="560" width="620" height="690" as="geometry" />
        </mxCell>
        <mxCell id="SyUR6yGUNe8U44WFTiyW-18" value="" style="rounded=0;whiteSpace=wrap;html=1;fillColor=none;" parent="1" vertex="1">
          <mxGeometry x="95" y="570" width="590" height="110" as="geometry" />
        </mxCell>
        <mxCell id="aFwNrgKFRGCG29cXAObZ-14" value="" style="rounded=0;whiteSpace=wrap;html=1;fillColor=none;" vertex="1" parent="1">
          <mxGeometry x="370" y="876.25" width="310" height="353.75" as="geometry" />
        </mxCell>
        <mxCell id="SyUR6yGUNe8U44WFTiyW-11" value="Vendedor" style="rounded=0;whiteSpace=wrap;html=1;" parent="1" vertex="1">
          <mxGeometry x="190" y="610" width="120" height="60" as="geometry" />
        </mxCell>
        <mxCell id="SyUR6yGUNe8U44WFTiyW-12" value="" style="endArrow=none;html=1;rounded=0;exitX=1;exitY=0.5;exitDx=0;exitDy=0;entryX=0;entryY=0.5;entryDx=0;entryDy=0;" parent="1" source="SyUR6yGUNe8U44WFTiyW-11" target="SyUR6yGUNe8U44WFTiyW-13" edge="1">
          <mxGeometry width="50" height="50" relative="1" as="geometry">
            <mxPoint x="370" y="600" as="sourcePoint" />
            <mxPoint x="370" y="640" as="targetPoint" />
          </mxGeometry>
        </mxCell>
        <mxCell id="SyUR6yGUNe8U44WFTiyW-13" value="trabaja" style="rhombus;whiteSpace=wrap;html=1;" parent="1" vertex="1">
          <mxGeometry x="360" y="610" width="60" height="60" as="geometry" />
        </mxCell>
        <mxCell id="SyUR6yGUNe8U44WFTiyW-14" value="" style="endArrow=none;html=1;rounded=0;exitX=1;exitY=0.5;exitDx=0;exitDy=0;entryX=0;entryY=0.5;entryDx=0;entryDy=0;" parent="1" source="SyUR6yGUNe8U44WFTiyW-13" target="SyUR6yGUNe8U44WFTiyW-15" edge="1">
          <mxGeometry width="50" height="50" relative="1" as="geometry">
            <mxPoint x="540" y="590" as="sourcePoint" />
            <mxPoint x="460" y="640" as="targetPoint" />
          </mxGeometry>
        </mxCell>
        <mxCell id="SyUR6yGUNe8U44WFTiyW-15" value="Sucursal" style="rounded=0;whiteSpace=wrap;html=1;" parent="1" vertex="1">
          <mxGeometry x="470" y="610" width="120" height="60" as="geometry" />
        </mxCell>
        <mxCell id="SyUR6yGUNe8U44WFTiyW-16" value="1,N" style="text;html=1;align=center;verticalAlign=middle;resizable=0;points=[];autosize=1;strokeColor=none;fillColor=none;" parent="1" vertex="1">
          <mxGeometry x="430" y="610" width="40" height="30" as="geometry" />
        </mxCell>
        <mxCell id="SyUR6yGUNe8U44WFTiyW-17" value="1,N" style="text;html=1;align=center;verticalAlign=middle;resizable=0;points=[];autosize=1;strokeColor=none;fillColor=none;" parent="1" vertex="1">
          <mxGeometry x="310" y="610" width="40" height="30" as="geometry" />
        </mxCell>
        <mxCell id="aFwNrgKFRGCG29cXAObZ-1" value="" style="endArrow=none;html=1;rounded=0;entryX=0.5;entryY=1;entryDx=0;entryDy=0;exitX=0.5;exitY=0;exitDx=0;exitDy=0;" edge="1" parent="1" source="aFwNrgKFRGCG29cXAObZ-2" target="SyUR6yGUNe8U44WFTiyW-15">
          <mxGeometry width="50" height="50" relative="1" as="geometry">
            <mxPoint x="530" y="780" as="sourcePoint" />
            <mxPoint x="550" y="770" as="targetPoint" />
          </mxGeometry>
        </mxCell>
        <mxCell id="aFwNrgKFRGCG29cXAObZ-2" value="&lt;font size=&quot;1&quot;&gt;comercia&lt;/font&gt;" style="rhombus;whiteSpace=wrap;html=1;" vertex="1" parent="1">
          <mxGeometry x="780" y="760" width="50" height="50" as="geometry" />
        </mxCell>
        <mxCell id="aFwNrgKFRGCG29cXAObZ-3" value="" style="endArrow=none;html=1;rounded=0;entryX=0.5;entryY=1;entryDx=0;entryDy=0;exitX=0.5;exitY=0;exitDx=0;exitDy=0;" edge="1" parent="1" source="aFwNrgKFRGCG29cXAObZ-4" target="aFwNrgKFRGCG29cXAObZ-2">
          <mxGeometry width="50" height="50" relative="1" as="geometry">
            <mxPoint x="530" y="880" as="sourcePoint" />
            <mxPoint x="550" y="850" as="targetPoint" />
          </mxGeometry>
        </mxCell>
        <mxCell id="aFwNrgKFRGCG29cXAObZ-4" value="Producto" style="rounded=0;whiteSpace=wrap;html=1;" vertex="1" parent="1">
          <mxGeometry x="470" y="890" width="120" height="60" as="geometry" />
        </mxCell>
        <mxCell id="aFwNrgKFRGCG29cXAObZ-5" value="&lt;font style=&quot;font-size: 9px;&quot;&gt;tiene&lt;/font&gt;" style="rhombus;whiteSpace=wrap;html=1;" vertex="1" parent="1">
          <mxGeometry x="505" y="1020" width="50" height="50" as="geometry" />
        </mxCell>
        <mxCell id="aFwNrgKFRGCG29cXAObZ-6" value="" style="endArrow=none;html=1;rounded=0;entryX=0.5;entryY=1;entryDx=0;entryDy=0;exitX=0.5;exitY=0;exitDx=0;exitDy=0;" edge="1" parent="1" source="aFwNrgKFRGCG29cXAObZ-5" target="aFwNrgKFRGCG29cXAObZ-4">
          <mxGeometry width="50" height="50" relative="1" as="geometry">
            <mxPoint x="390" y="1060" as="sourcePoint" />
            <mxPoint x="440" y="1010" as="targetPoint" />
          </mxGeometry>
        </mxCell>
        <mxCell id="aFwNrgKFRGCG29cXAObZ-7" value="Precentacion" style="rounded=0;whiteSpace=wrap;html=1;" vertex="1" parent="1">
          <mxGeometry x="470" y="1130" width="120" height="60" as="geometry" />
        </mxCell>
        <mxCell id="aFwNrgKFRGCG29cXAObZ-8" value="" style="endArrow=none;html=1;rounded=0;entryX=0.5;entryY=1;entryDx=0;entryDy=0;exitX=0.5;exitY=0;exitDx=0;exitDy=0;" edge="1" parent="1" source="aFwNrgKFRGCG29cXAObZ-7" target="aFwNrgKFRGCG29cXAObZ-5">
          <mxGeometry width="50" height="50" relative="1" as="geometry">
            <mxPoint x="320" y="1110" as="sourcePoint" />
            <mxPoint x="370" y="1060" as="targetPoint" />
          </mxGeometry>
        </mxCell>
        <mxCell id="aFwNrgKFRGCG29cXAObZ-9" value="&lt;font size=&quot;1&quot;&gt;vende&lt;/font&gt;" style="rhombus;whiteSpace=wrap;html=1;" vertex="1" parent="1">
          <mxGeometry x="225" y="895" width="50" height="50" as="geometry" />
        </mxCell>
        <mxCell id="aFwNrgKFRGCG29cXAObZ-10" value="" style="endArrow=none;html=1;rounded=0;exitX=1;exitY=0.5;exitDx=0;exitDy=0;entryX=0.001;entryY=0.123;entryDx=0;entryDy=0;entryPerimeter=0;" edge="1" parent="1" source="aFwNrgKFRGCG29cXAObZ-9" target="aFwNrgKFRGCG29cXAObZ-14">
          <mxGeometry width="50" height="50" relative="1" as="geometry">
            <mxPoint x="330" y="970" as="sourcePoint" />
            <mxPoint x="360" y="920" as="targetPoint" />
          </mxGeometry>
        </mxCell>
        <mxCell id="aFwNrgKFRGCG29cXAObZ-11" value="" style="endArrow=none;html=1;rounded=0;entryX=0.5;entryY=1;entryDx=0;entryDy=0;" edge="1" parent="1" source="aFwNrgKFRGCG29cXAObZ-9" target="SyUR6yGUNe8U44WFTiyW-11">
          <mxGeometry width="50" height="50" relative="1" as="geometry">
            <mxPoint x="210" y="840" as="sourcePoint" />
            <mxPoint x="260" y="790" as="targetPoint" />
          </mxGeometry>
        </mxCell>
        <mxCell id="aFwNrgKFRGCG29cXAObZ-12" value="0,N" style="text;html=1;align=center;verticalAlign=middle;resizable=0;points=[];autosize=1;strokeColor=none;fillColor=none;" vertex="1" parent="1">
          <mxGeometry x="530" y="950" width="40" height="30" as="geometry" />
        </mxCell>
        <mxCell id="aFwNrgKFRGCG29cXAObZ-13" value="1,N" style="text;html=1;align=center;verticalAlign=middle;resizable=0;points=[];autosize=1;strokeColor=none;fillColor=none;" vertex="1" parent="1">
          <mxGeometry x="530" y="1100" width="40" height="30" as="geometry" />
        </mxCell>
        <mxCell id="aFwNrgKFRGCG29cXAObZ-15" value="&lt;font size=&quot;1&quot;&gt;cumple&lt;/font&gt;" style="rhombus;whiteSpace=wrap;html=1;" vertex="1" parent="1">
          <mxGeometry x="760" y="615" width="50" height="50" as="geometry" />
        </mxCell>
        <mxCell id="aFwNrgKFRGCG29cXAObZ-16" value="Turno" style="rounded=0;whiteSpace=wrap;html=1;" vertex="1" parent="1">
          <mxGeometry x="900" y="610" width="120" height="60" as="geometry" />
        </mxCell>
        <mxCell id="aFwNrgKFRGCG29cXAObZ-17" value="" style="endArrow=none;html=1;rounded=0;entryX=0;entryY=0.5;entryDx=0;entryDy=0;" edge="1" parent="1" target="aFwNrgKFRGCG29cXAObZ-15">
          <mxGeometry width="50" height="50" relative="1" as="geometry">
            <mxPoint x="690" y="640" as="sourcePoint" />
            <mxPoint x="770" y="650" as="targetPoint" />
          </mxGeometry>
        </mxCell>
        <mxCell id="aFwNrgKFRGCG29cXAObZ-18" value="" style="endArrow=none;html=1;rounded=0;exitX=1;exitY=0.5;exitDx=0;exitDy=0;entryX=0;entryY=0.5;entryDx=0;entryDy=0;" edge="1" parent="1" source="aFwNrgKFRGCG29cXAObZ-15" target="aFwNrgKFRGCG29cXAObZ-16">
          <mxGeometry width="50" height="50" relative="1" as="geometry">
            <mxPoint x="880" y="670" as="sourcePoint" />
            <mxPoint x="930" y="620" as="targetPoint" />
          </mxGeometry>
        </mxCell>
        <mxCell id="aFwNrgKFRGCG29cXAObZ-19" value="1,N" style="text;html=1;align=center;verticalAlign=middle;resizable=0;points=[];autosize=1;strokeColor=none;fillColor=none;" vertex="1" parent="1">
          <mxGeometry x="530" y="846.25" width="40" height="30" as="geometry" />
        </mxCell>
        <mxCell id="aFwNrgKFRGCG29cXAObZ-20" value="0,N" style="text;html=1;align=center;verticalAlign=middle;resizable=0;points=[];autosize=1;strokeColor=none;fillColor=none;" vertex="1" parent="1">
          <mxGeometry x="530" y="680" width="40" height="30" as="geometry" />
        </mxCell>
        <mxCell id="aFwNrgKFRGCG29cXAObZ-21" value="0,N" style="text;html=1;align=center;verticalAlign=middle;resizable=0;points=[];autosize=1;strokeColor=none;fillColor=none;" vertex="1" parent="1">
          <mxGeometry x="250" y="680" width="40" height="30" as="geometry" />
        </mxCell>
        <mxCell id="aFwNrgKFRGCG29cXAObZ-22" value="0,N" style="text;html=1;align=center;verticalAlign=middle;resizable=0;points=[];autosize=1;strokeColor=none;fillColor=none;" vertex="1" parent="1">
          <mxGeometry x="330" y="890" width="40" height="30" as="geometry" />
        </mxCell>
        <mxCell id="aFwNrgKFRGCG29cXAObZ-23" value="Cliente" style="rounded=0;whiteSpace=wrap;html=1;" vertex="1" parent="1">
          <mxGeometry x="1600" y="975" width="120" height="60" as="geometry" />
        </mxCell>
        <mxCell id="aFwNrgKFRGCG29cXAObZ-24" value="&lt;font style=&quot;font-size: 9px;&quot;&gt;vive&lt;/font&gt;" style="rhombus;whiteSpace=wrap;html=1;" vertex="1" parent="1">
          <mxGeometry x="1635" y="880" width="50" height="50" as="geometry" />
        </mxCell>
        <mxCell id="aFwNrgKFRGCG29cXAObZ-25" value="domicilio" style="rounded=0;whiteSpace=wrap;html=1;" vertex="1" parent="1">
          <mxGeometry x="1600" y="760" width="120" height="60" as="geometry" />
        </mxCell>
        <mxCell id="aFwNrgKFRGCG29cXAObZ-28" value="" style="endArrow=none;html=1;rounded=0;entryX=0.5;entryY=0;entryDx=0;entryDy=0;exitX=0.5;exitY=1;exitDx=0;exitDy=0;" edge="1" parent="1" source="aFwNrgKFRGCG29cXAObZ-24" target="aFwNrgKFRGCG29cXAObZ-23">
          <mxGeometry width="50" height="50" relative="1" as="geometry">
            <mxPoint x="1570" y="970" as="sourcePoint" />
            <mxPoint x="1620" y="920" as="targetPoint" />
          </mxGeometry>
        </mxCell>
        <mxCell id="aFwNrgKFRGCG29cXAObZ-29" value="" style="endArrow=none;html=1;rounded=0;entryX=0.5;entryY=1;entryDx=0;entryDy=0;" edge="1" parent="1" source="aFwNrgKFRGCG29cXAObZ-24" target="aFwNrgKFRGCG29cXAObZ-25">
          <mxGeometry width="50" height="50" relative="1" as="geometry">
            <mxPoint x="1600" y="880" as="sourcePoint" />
            <mxPoint x="1650" y="830" as="targetPoint" />
          </mxGeometry>
        </mxCell>
        <mxCell id="aFwNrgKFRGCG29cXAObZ-30" value="&lt;font size=&quot;1&quot;&gt;pertenece&lt;/font&gt;" style="rhombus;whiteSpace=wrap;html=1;" vertex="1" parent="1">
          <mxGeometry x="1460" y="980" width="60" height="50" as="geometry" />
        </mxCell>
        <mxCell id="aFwNrgKFRGCG29cXAObZ-31" value="" style="endArrow=none;html=1;rounded=0;entryX=0;entryY=0.5;entryDx=0;entryDy=0;exitX=1;exitY=0.5;exitDx=0;exitDy=0;" edge="1" parent="1" source="aFwNrgKFRGCG29cXAObZ-30" target="aFwNrgKFRGCG29cXAObZ-23">
          <mxGeometry width="50" height="50" relative="1" as="geometry">
            <mxPoint x="1490" y="1120" as="sourcePoint" />
            <mxPoint x="1540" y="1070" as="targetPoint" />
          </mxGeometry>
        </mxCell>
        <mxCell id="aFwNrgKFRGCG29cXAObZ-32" value="" style="endArrow=none;html=1;rounded=0;entryX=0;entryY=0.5;entryDx=0;entryDy=0;exitX=1;exitY=0.5;exitDx=0;exitDy=0;" edge="1" parent="1" source="aFwNrgKFRGCG29cXAObZ-33" target="aFwNrgKFRGCG29cXAObZ-30">
          <mxGeometry width="50" height="50" relative="1" as="geometry">
            <mxPoint x="1410" y="1010" as="sourcePoint" />
            <mxPoint x="1430" y="1040" as="targetPoint" />
          </mxGeometry>
        </mxCell>
        <mxCell id="aFwNrgKFRGCG29cXAObZ-33" value="Compra" style="rounded=0;whiteSpace=wrap;html=1;" vertex="1" parent="1">
          <mxGeometry x="1270" y="975" width="120" height="60" as="geometry" />
        </mxCell>
        <mxCell id="aFwNrgKFRGCG29cXAObZ-37" value="&lt;font style=&quot;font-size: 9px;&quot;&gt;registra&lt;/font&gt;" style="rhombus;whiteSpace=wrap;html=1;" vertex="1" parent="1">
          <mxGeometry x="800" y="980" width="50" height="50" as="geometry" />
        </mxCell>
        <mxCell id="aFwNrgKFRGCG29cXAObZ-39" value="" style="endArrow=none;html=1;rounded=0;entryX=0;entryY=0.5;entryDx=0;entryDy=0;exitX=1.005;exitY=0.642;exitDx=0;exitDy=0;exitPerimeter=0;" edge="1" parent="1" source="aFwNrgKFRGCG29cXAObZ-34" target="aFwNrgKFRGCG29cXAObZ-37">
          <mxGeometry width="50" height="50" relative="1" as="geometry">
            <mxPoint x="780" y="1040" as="sourcePoint" />
            <mxPoint x="898" y="1011" as="targetPoint" />
          </mxGeometry>
        </mxCell>
        <mxCell id="aFwNrgKFRGCG29cXAObZ-40" value="" style="endArrow=none;html=1;rounded=0;exitX=1;exitY=0.5;exitDx=0;exitDy=0;entryX=0;entryY=0.5;entryDx=0;entryDy=0;" edge="1" parent="1" source="aFwNrgKFRGCG29cXAObZ-37" target="aFwNrgKFRGCG29cXAObZ-41">
          <mxGeometry width="50" height="50" relative="1" as="geometry">
            <mxPoint x="960" y="1010" as="sourcePoint" />
            <mxPoint x="930" y="1000" as="targetPoint" />
          </mxGeometry>
        </mxCell>
        <mxCell id="aFwNrgKFRGCG29cXAObZ-41" value="Comprobante" style="rounded=0;whiteSpace=wrap;html=1;" vertex="1" parent="1">
          <mxGeometry x="940" y="975" width="120" height="60" as="geometry" />
        </mxCell>
        <mxCell id="aFwNrgKFRGCG29cXAObZ-42" value="&lt;font size=&quot;1&quot;&gt;usa&lt;/font&gt;" style="rhombus;whiteSpace=wrap;html=1;" vertex="1" parent="1">
          <mxGeometry x="1790" y="980" width="50" height="50" as="geometry" />
        </mxCell>
        <mxCell id="aFwNrgKFRGCG29cXAObZ-43" value="telefono" style="rounded=0;whiteSpace=wrap;html=1;" vertex="1" parent="1">
          <mxGeometry x="1900" y="975" width="120" height="60" as="geometry" />
        </mxCell>
        <mxCell id="aFwNrgKFRGCG29cXAObZ-44" value="" style="endArrow=none;html=1;rounded=0;entryX=1;entryY=0.5;entryDx=0;entryDy=0;exitX=0;exitY=0.5;exitDx=0;exitDy=0;" edge="1" parent="1" source="aFwNrgKFRGCG29cXAObZ-42" target="aFwNrgKFRGCG29cXAObZ-23">
          <mxGeometry width="50" height="50" relative="1" as="geometry">
            <mxPoint x="1725" y="1085" as="sourcePoint" />
            <mxPoint x="1815" y="1095" as="targetPoint" />
          </mxGeometry>
        </mxCell>
        <mxCell id="aFwNrgKFRGCG29cXAObZ-45" value="" style="endArrow=none;html=1;rounded=0;entryX=0;entryY=0.5;entryDx=0;entryDy=0;" edge="1" parent="1" source="aFwNrgKFRGCG29cXAObZ-42" target="aFwNrgKFRGCG29cXAObZ-43">
          <mxGeometry width="50" height="50" relative="1" as="geometry">
            <mxPoint x="1900" y="1105" as="sourcePoint" />
            <mxPoint x="1950" y="1055" as="targetPoint" />
          </mxGeometry>
        </mxCell>
        <mxCell id="aFwNrgKFRGCG29cXAObZ-47" value="&lt;font size=&quot;1&quot;&gt;entrega&lt;/font&gt;" style="rhombus;whiteSpace=wrap;html=1;" vertex="1" parent="1">
          <mxGeometry x="1305" y="765" width="50" height="50" as="geometry" />
        </mxCell>
        <mxCell id="aFwNrgKFRGCG29cXAObZ-48" value="" style="endArrow=none;html=1;rounded=0;entryX=0;entryY=0.5;entryDx=0;entryDy=0;exitX=1;exitY=0.5;exitDx=0;exitDy=0;" edge="1" parent="1" source="aFwNrgKFRGCG29cXAObZ-47" target="aFwNrgKFRGCG29cXAObZ-25">
          <mxGeometry width="50" height="50" relative="1" as="geometry">
            <mxPoint x="1480" y="800" as="sourcePoint" />
            <mxPoint x="1530" y="750" as="targetPoint" />
          </mxGeometry>
        </mxCell>
        <mxCell id="aFwNrgKFRGCG29cXAObZ-49" value="" style="endArrow=none;html=1;rounded=0;entryX=0.5;entryY=1;entryDx=0;entryDy=0;" edge="1" parent="1" source="aFwNrgKFRGCG29cXAObZ-33" target="aFwNrgKFRGCG29cXAObZ-47">
          <mxGeometry width="50" height="50" relative="1" as="geometry">
            <mxPoint x="1210" y="880" as="sourcePoint" />
            <mxPoint x="1260" y="830" as="targetPoint" />
          </mxGeometry>
        </mxCell>
        <mxCell id="aFwNrgKFRGCG29cXAObZ-50" value="" style="endArrow=none;html=1;rounded=0;exitX=1;exitY=0.5;exitDx=0;exitDy=0;entryX=0;entryY=0.5;entryDx=0;entryDy=0;" edge="1" parent="1" source="aFwNrgKFRGCG29cXAObZ-41" target="aFwNrgKFRGCG29cXAObZ-51">
          <mxGeometry width="50" height="50" relative="1" as="geometry">
            <mxPoint x="1080" y="1000" as="sourcePoint" />
            <mxPoint x="1130" y="950" as="targetPoint" />
          </mxGeometry>
        </mxCell>
        <mxCell id="aFwNrgKFRGCG29cXAObZ-51" value="&lt;font style=&quot;font-size: 9px;&quot;&gt;tiene2&lt;/font&gt;" style="rhombus;whiteSpace=wrap;html=1;" vertex="1" parent="1">
          <mxGeometry x="1140" y="980" width="50" height="50" as="geometry" />
        </mxCell>
        <mxCell id="aFwNrgKFRGCG29cXAObZ-52" value="" style="endArrow=none;html=1;rounded=0;entryX=0;entryY=0.5;entryDx=0;entryDy=0;exitX=1;exitY=0.5;exitDx=0;exitDy=0;" edge="1" parent="1" source="aFwNrgKFRGCG29cXAObZ-51" target="aFwNrgKFRGCG29cXAObZ-33">
          <mxGeometry width="50" height="50" relative="1" as="geometry">
            <mxPoint x="1190" y="1060" as="sourcePoint" />
            <mxPoint x="1240" y="1010" as="targetPoint" />
          </mxGeometry>
        </mxCell>
        <mxCell id="aFwNrgKFRGCG29cXAObZ-53" value="" style="ellipse;whiteSpace=wrap;html=1;aspect=fixed;fillColor=#000000;" vertex="1" parent="1">
          <mxGeometry x="150" y="615.0000000000002" width="20" height="20" as="geometry" />
        </mxCell>
        <mxCell id="aFwNrgKFRGCG29cXAObZ-54" value="" style="endArrow=none;html=1;rounded=0;entryX=1;entryY=0.5;entryDx=0;entryDy=0;exitX=0;exitY=0.25;exitDx=0;exitDy=0;" edge="1" target="aFwNrgKFRGCG29cXAObZ-53" parent="1" source="SyUR6yGUNe8U44WFTiyW-11">
          <mxGeometry width="50" height="50" relative="1" as="geometry">
            <mxPoint x="-120" y="634.0000000000002" as="sourcePoint" />
            <mxPoint x="-130" y="588.0000000000002" as="targetPoint" />
          </mxGeometry>
        </mxCell>
        <mxCell id="aFwNrgKFRGCG29cXAObZ-55" value="Legajo" style="text;html=1;align=center;verticalAlign=middle;resizable=0;points=[];autosize=1;strokeColor=none;fillColor=none;" vertex="1" parent="1">
          <mxGeometry x="100" y="610" width="60" height="30" as="geometry" />
        </mxCell>
        <mxCell id="aFwNrgKFRGCG29cXAObZ-56" value="" style="ellipse;whiteSpace=wrap;html=1;aspect=fixed;" vertex="1" parent="1">
          <mxGeometry x="150" y="645" width="20" height="20" as="geometry" />
        </mxCell>
        <mxCell id="aFwNrgKFRGCG29cXAObZ-57" value="" style="endArrow=none;html=1;rounded=0;entryX=1;entryY=0.5;entryDx=0;entryDy=0;exitX=0;exitY=0.75;exitDx=0;exitDy=0;" edge="1" target="aFwNrgKFRGCG29cXAObZ-56" parent="1" source="SyUR6yGUNe8U44WFTiyW-11">
          <mxGeometry width="50" height="50" relative="1" as="geometry">
            <mxPoint x="183" y="650" as="sourcePoint" />
            <mxPoint x="313" y="630" as="targetPoint" />
          </mxGeometry>
        </mxCell>
        <mxCell id="aFwNrgKFRGCG29cXAObZ-58" value="Nombre" style="text;html=1;align=center;verticalAlign=middle;resizable=0;points=[];autosize=1;strokeColor=none;fillColor=none;" vertex="1" parent="1">
          <mxGeometry x="90" y="640" width="70" height="30" as="geometry" />
        </mxCell>
        <mxCell id="aFwNrgKFRGCG29cXAObZ-59" value="Nombre" style="text;html=1;align=center;verticalAlign=middle;resizable=0;points=[];autosize=1;strokeColor=none;fillColor=none;" vertex="1" parent="1">
          <mxGeometry x="1685" y="920" width="70" height="30" as="geometry" />
        </mxCell>
        <mxCell id="aFwNrgKFRGCG29cXAObZ-60" value="" style="ellipse;whiteSpace=wrap;html=1;aspect=fixed;" vertex="1" parent="1">
          <mxGeometry x="1710" y="945" width="20" height="20" as="geometry" />
        </mxCell>
        <mxCell id="aFwNrgKFRGCG29cXAObZ-61" value="" style="endArrow=none;html=1;rounded=0;entryX=0.5;entryY=1;entryDx=0;entryDy=0;exitX=1;exitY=0;exitDx=0;exitDy=0;" edge="1" target="aFwNrgKFRGCG29cXAObZ-60" parent="1" source="aFwNrgKFRGCG29cXAObZ-23">
          <mxGeometry width="50" height="50" relative="1" as="geometry">
            <mxPoint x="1725" y="980" as="sourcePoint" />
            <mxPoint x="1725" y="930" as="targetPoint" />
          </mxGeometry>
        </mxCell>
        <mxCell id="aFwNrgKFRGCG29cXAObZ-62" value="" style="ellipse;whiteSpace=wrap;html=1;aspect=fixed;fillColor=#000000;" vertex="1" parent="1">
          <mxGeometry x="1590" y="939.0000000000002" width="20" height="20" as="geometry" />
        </mxCell>
        <mxCell id="aFwNrgKFRGCG29cXAObZ-63" value="" style="endArrow=none;html=1;rounded=0;entryX=0.5;entryY=1;entryDx=0;entryDy=0;" edge="1" target="aFwNrgKFRGCG29cXAObZ-62" parent="1">
          <mxGeometry width="50" height="50" relative="1" as="geometry">
            <mxPoint x="1600" y="980.0000000000002" as="sourcePoint" />
            <mxPoint x="1590" y="934.0000000000002" as="targetPoint" />
          </mxGeometry>
        </mxCell>
        <mxCell id="aFwNrgKFRGCG29cXAObZ-64" value="#Cliente" style="text;html=1;align=center;verticalAlign=middle;resizable=0;points=[];autosize=1;strokeColor=none;fillColor=none;" vertex="1" parent="1">
          <mxGeometry x="1560" y="915" width="70" height="30" as="geometry" />
        </mxCell>
        <mxCell id="aFwNrgKFRGCG29cXAObZ-65" value="1,N" style="text;html=1;align=center;verticalAlign=middle;resizable=0;points=[];autosize=1;strokeColor=none;fillColor=none;" vertex="1" parent="1">
          <mxGeometry x="860" y="610" width="40" height="30" as="geometry" />
        </mxCell>
        <mxCell id="aFwNrgKFRGCG29cXAObZ-67" value="1,N" style="text;html=1;align=center;verticalAlign=middle;resizable=0;points=[];autosize=1;strokeColor=none;fillColor=none;" vertex="1" parent="1">
          <mxGeometry x="700" y="610" width="40" height="30" as="geometry" />
        </mxCell>
        <mxCell id="aFwNrgKFRGCG29cXAObZ-68" value="" style="ellipse;whiteSpace=wrap;html=1;aspect=fixed;" vertex="1" parent="1">
          <mxGeometry x="410" y="590" width="10" height="10" as="geometry" />
        </mxCell>
        <mxCell id="aFwNrgKFRGCG29cXAObZ-69" value="" style="endArrow=none;html=1;rounded=0;entryX=0.031;entryY=0.816;entryDx=0;entryDy=0;exitX=0.58;exitY=0.057;exitDx=0;exitDy=0;entryPerimeter=0;exitPerimeter=0;" edge="1" target="aFwNrgKFRGCG29cXAObZ-68" parent="1" source="SyUR6yGUNe8U44WFTiyW-13">
          <mxGeometry width="50" height="50" relative="1" as="geometry">
            <mxPoint x="405" y="590" as="sourcePoint" />
            <mxPoint x="640" y="365" as="targetPoint" />
          </mxGeometry>
        </mxCell>
        <mxCell id="aFwNrgKFRGCG29cXAObZ-70" value="ingreso" style="text;html=1;align=center;verticalAlign=middle;resizable=0;points=[];autosize=1;strokeColor=none;fillColor=none;" vertex="1" parent="1">
          <mxGeometry x="410" y="570" width="60" height="30" as="geometry" />
        </mxCell>
        <mxCell id="aFwNrgKFRGCG29cXAObZ-71" value="1,1" style="text;html=1;align=center;verticalAlign=middle;resizable=0;points=[];autosize=1;strokeColor=none;fillColor=none;" vertex="1" parent="1">
          <mxGeometry x="700" y="975" width="40" height="30" as="geometry" />
        </mxCell>
        <mxCell id="aFwNrgKFRGCG29cXAObZ-72" value="0,N" style="text;html=1;align=center;verticalAlign=middle;resizable=0;points=[];autosize=1;strokeColor=none;fillColor=none;" vertex="1" parent="1">
          <mxGeometry x="900" y="975" width="40" height="30" as="geometry" />
        </mxCell>
        <mxCell id="aFwNrgKFRGCG29cXAObZ-73" value="1,N" style="text;html=1;align=center;verticalAlign=middle;resizable=0;points=[];autosize=1;strokeColor=none;fillColor=none;" vertex="1" parent="1">
          <mxGeometry x="1230" y="1005" width="40" height="30" as="geometry" />
        </mxCell>
        <mxCell id="aFwNrgKFRGCG29cXAObZ-74" value="1,1" style="text;html=1;align=center;verticalAlign=middle;resizable=0;points=[];autosize=1;strokeColor=none;fillColor=none;" vertex="1" parent="1">
          <mxGeometry x="1060" y="1005" width="40" height="30" as="geometry" />
        </mxCell>
        <mxCell id="aFwNrgKFRGCG29cXAObZ-75" value="1,1" style="text;html=1;align=center;verticalAlign=middle;resizable=0;points=[];autosize=1;strokeColor=none;fillColor=none;" vertex="1" parent="1">
          <mxGeometry x="1560" y="1005" width="40" height="30" as="geometry" />
        </mxCell>
        <mxCell id="aFwNrgKFRGCG29cXAObZ-76" value="0,N" style="text;html=1;align=center;verticalAlign=middle;resizable=0;points=[];autosize=1;strokeColor=none;fillColor=none;" vertex="1" parent="1">
          <mxGeometry x="1390" y="1005" width="40" height="30" as="geometry" />
        </mxCell>
        <mxCell id="aFwNrgKFRGCG29cXAObZ-77" value="1,1" style="text;html=1;align=center;verticalAlign=middle;resizable=0;points=[];autosize=1;strokeColor=none;fillColor=none;" vertex="1" parent="1">
          <mxGeometry x="1560" y="790" width="40" height="30" as="geometry" />
        </mxCell>
        <mxCell id="aFwNrgKFRGCG29cXAObZ-78" value="0,N" style="text;html=1;align=center;verticalAlign=middle;resizable=0;points=[];autosize=1;strokeColor=none;fillColor=none;" vertex="1" parent="1">
          <mxGeometry x="1330" y="940" width="40" height="30" as="geometry" />
        </mxCell>
        <mxCell id="aFwNrgKFRGCG29cXAObZ-79" value="1,N" style="text;html=1;align=center;verticalAlign=middle;resizable=0;points=[];autosize=1;strokeColor=none;fillColor=none;" vertex="1" parent="1">
          <mxGeometry x="1660" y="945" width="40" height="30" as="geometry" />
        </mxCell>
        <mxCell id="aFwNrgKFRGCG29cXAObZ-80" value="1,N" style="text;html=1;align=center;verticalAlign=middle;resizable=0;points=[];autosize=1;strokeColor=none;fillColor=none;" vertex="1" parent="1">
          <mxGeometry x="1660" y="820" width="40" height="30" as="geometry" />
        </mxCell>
        <mxCell id="aFwNrgKFRGCG29cXAObZ-81" value="1,N" style="text;html=1;align=center;verticalAlign=middle;resizable=0;points=[];autosize=1;strokeColor=none;fillColor=none;" vertex="1" parent="1">
          <mxGeometry x="1720" y="975" width="40" height="30" as="geometry" />
        </mxCell>
        <mxCell id="aFwNrgKFRGCG29cXAObZ-82" value="0,N" style="text;html=1;align=center;verticalAlign=middle;resizable=0;points=[];autosize=1;strokeColor=none;fillColor=none;" vertex="1" parent="1">
          <mxGeometry x="1860" y="975" width="40" height="30" as="geometry" />
        </mxCell>
        <mxCell id="aFwNrgKFRGCG29cXAObZ-83" value="" style="ellipse;whiteSpace=wrap;html=1;aspect=fixed;fillColor=#000000;" vertex="1" parent="1">
          <mxGeometry x="600" y="600.0000000000002" width="20" height="20" as="geometry" />
        </mxCell>
        <mxCell id="aFwNrgKFRGCG29cXAObZ-84" value="" style="endArrow=none;html=1;rounded=0;exitX=1;exitY=0;exitDx=0;exitDy=0;entryX=0;entryY=0.5;entryDx=0;entryDy=0;" edge="1" target="aFwNrgKFRGCG29cXAObZ-83" parent="1" source="SyUR6yGUNe8U44WFTiyW-15">
          <mxGeometry width="50" height="50" relative="1" as="geometry">
            <mxPoint x="660" y="651.0000000000002" as="sourcePoint" />
            <mxPoint x="610" y="621" as="targetPoint" />
          </mxGeometry>
        </mxCell>
        <mxCell id="aFwNrgKFRGCG29cXAObZ-85" value="Ubicacion" style="text;html=1;align=center;verticalAlign=middle;resizable=0;points=[];autosize=1;strokeColor=none;fillColor=none;" vertex="1" parent="1">
          <mxGeometry x="610" y="635" width="80" height="30" as="geometry" />
        </mxCell>
        <mxCell id="aFwNrgKFRGCG29cXAObZ-86" value="" style="ellipse;whiteSpace=wrap;html=1;aspect=fixed;" vertex="1" parent="1">
          <mxGeometry x="600" y="640" width="20" height="20" as="geometry" />
        </mxCell>
        <mxCell id="aFwNrgKFRGCG29cXAObZ-87" value="" style="endArrow=none;html=1;rounded=0;entryX=0;entryY=0.5;entryDx=0;entryDy=0;exitX=1;exitY=0.5;exitDx=0;exitDy=0;" edge="1" target="aFwNrgKFRGCG29cXAObZ-86" parent="1">
          <mxGeometry width="50" height="50" relative="1" as="geometry">
            <mxPoint x="590" y="650" as="sourcePoint" />
            <mxPoint x="825" y="425" as="targetPoint" />
          </mxGeometry>
        </mxCell>
        <mxCell id="aFwNrgKFRGCG29cXAObZ-88" value="#Sucursal" style="text;html=1;align=center;verticalAlign=middle;resizable=0;points=[];autosize=1;strokeColor=none;fillColor=none;" vertex="1" parent="1">
          <mxGeometry x="610" y="595" width="80" height="30" as="geometry" />
        </mxCell>
        <mxCell id="aFwNrgKFRGCG29cXAObZ-89" value="#Precentacion" style="text;html=1;align=center;verticalAlign=middle;resizable=0;points=[];autosize=1;strokeColor=none;fillColor=none;" vertex="1" parent="1">
          <mxGeometry x="420" y="1059" width="100" height="30" as="geometry" />
        </mxCell>
        <mxCell id="aFwNrgKFRGCG29cXAObZ-90" value="" style="ellipse;whiteSpace=wrap;html=1;aspect=fixed;fillColor=#000000;" vertex="1" parent="1">
          <mxGeometry x="460" y="1089.0000000000002" width="20" height="20" as="geometry" />
        </mxCell>
        <mxCell id="aFwNrgKFRGCG29cXAObZ-91" value="" style="endArrow=none;html=1;rounded=0;entryX=0.5;entryY=1;entryDx=0;entryDy=0;" edge="1" target="aFwNrgKFRGCG29cXAObZ-90" parent="1">
          <mxGeometry width="50" height="50" relative="1" as="geometry">
            <mxPoint x="470" y="1130.0000000000002" as="sourcePoint" />
            <mxPoint x="460" y="1084.0000000000002" as="targetPoint" />
          </mxGeometry>
        </mxCell>
        <mxCell id="aFwNrgKFRGCG29cXAObZ-92" value="" style="ellipse;whiteSpace=wrap;html=1;aspect=fixed;fillColor=#000000;" vertex="1" parent="1">
          <mxGeometry x="460" y="965.0000000000002" width="20" height="20" as="geometry" />
        </mxCell>
        <mxCell id="aFwNrgKFRGCG29cXAObZ-93" value="" style="endArrow=none;html=1;rounded=0;entryX=0.5;entryY=0;entryDx=0;entryDy=0;exitX=0;exitY=1;exitDx=0;exitDy=0;" edge="1" target="aFwNrgKFRGCG29cXAObZ-92" parent="1" source="aFwNrgKFRGCG29cXAObZ-4">
          <mxGeometry width="50" height="50" relative="1" as="geometry">
            <mxPoint x="470" y="1016.0000000000002" as="sourcePoint" />
            <mxPoint x="460" y="970.0000000000002" as="targetPoint" />
          </mxGeometry>
        </mxCell>
        <mxCell id="aFwNrgKFRGCG29cXAObZ-94" value="#Producto" style="text;html=1;align=center;verticalAlign=middle;resizable=0;points=[];autosize=1;strokeColor=none;fillColor=none;" vertex="1" parent="1">
          <mxGeometry x="425" y="980" width="80" height="30" as="geometry" />
        </mxCell>
        <mxCell id="aFwNrgKFRGCG29cXAObZ-95" value="" style="ellipse;whiteSpace=wrap;html=1;aspect=fixed;" vertex="1" parent="1">
          <mxGeometry x="600" y="880" width="20" height="20" as="geometry" />
        </mxCell>
        <mxCell id="aFwNrgKFRGCG29cXAObZ-96" value="" style="endArrow=none;html=1;rounded=0;entryX=0;entryY=0.5;entryDx=0;entryDy=0;exitX=1;exitY=0.5;exitDx=0;exitDy=0;" edge="1" target="aFwNrgKFRGCG29cXAObZ-95" parent="1">
          <mxGeometry width="50" height="50" relative="1" as="geometry">
            <mxPoint x="590" y="890" as="sourcePoint" />
            <mxPoint x="825" y="665" as="targetPoint" />
          </mxGeometry>
        </mxCell>
        <mxCell id="aFwNrgKFRGCG29cXAObZ-97" value="" style="ellipse;whiteSpace=wrap;html=1;aspect=fixed;" vertex="1" parent="1">
          <mxGeometry x="600" y="910" width="20" height="20" as="geometry" />
        </mxCell>
        <mxCell id="aFwNrgKFRGCG29cXAObZ-98" value="" style="endArrow=none;html=1;rounded=0;entryX=0;entryY=0.5;entryDx=0;entryDy=0;exitX=1;exitY=0.5;exitDx=0;exitDy=0;" edge="1" target="aFwNrgKFRGCG29cXAObZ-97" parent="1">
          <mxGeometry width="50" height="50" relative="1" as="geometry">
            <mxPoint x="590" y="920" as="sourcePoint" />
            <mxPoint x="825" y="695" as="targetPoint" />
          </mxGeometry>
        </mxCell>
        <mxCell id="aFwNrgKFRGCG29cXAObZ-99" value="" style="ellipse;whiteSpace=wrap;html=1;aspect=fixed;" vertex="1" parent="1">
          <mxGeometry x="600" y="940" width="20" height="20" as="geometry" />
        </mxCell>
        <mxCell id="aFwNrgKFRGCG29cXAObZ-100" value="" style="endArrow=none;html=1;rounded=0;entryX=0;entryY=0.5;entryDx=0;entryDy=0;exitX=1;exitY=0.5;exitDx=0;exitDy=0;" edge="1" target="aFwNrgKFRGCG29cXAObZ-99" parent="1">
          <mxGeometry width="50" height="50" relative="1" as="geometry">
            <mxPoint x="590" y="950" as="sourcePoint" />
            <mxPoint x="825" y="725" as="targetPoint" />
          </mxGeometry>
        </mxCell>
        <mxCell id="aFwNrgKFRGCG29cXAObZ-101" value="Marca" style="text;html=1;align=center;verticalAlign=middle;resizable=0;points=[];autosize=1;strokeColor=none;fillColor=none;" vertex="1" parent="1">
          <mxGeometry x="610" y="876.25" width="60" height="30" as="geometry" />
        </mxCell>
        <mxCell id="aFwNrgKFRGCG29cXAObZ-102" value="Tipo" style="text;html=1;align=center;verticalAlign=middle;resizable=0;points=[];autosize=1;strokeColor=none;fillColor=none;" vertex="1" parent="1">
          <mxGeometry x="610" y="905" width="50" height="30" as="geometry" />
        </mxCell>
        <mxCell id="aFwNrgKFRGCG29cXAObZ-103" value="Desc" style="text;html=1;align=center;verticalAlign=middle;resizable=0;points=[];autosize=1;strokeColor=none;fillColor=none;" vertex="1" parent="1">
          <mxGeometry x="615" y="935" width="50" height="30" as="geometry" />
        </mxCell>
        <mxCell id="aFwNrgKFRGCG29cXAObZ-104" value="" style="ellipse;whiteSpace=wrap;html=1;aspect=fixed;" vertex="1" parent="1">
          <mxGeometry x="440" y="880" width="20" height="20" as="geometry" />
        </mxCell>
        <mxCell id="aFwNrgKFRGCG29cXAObZ-105" value="" style="endArrow=none;html=1;rounded=0;entryX=1;entryY=0.5;entryDx=0;entryDy=0;" edge="1" target="aFwNrgKFRGCG29cXAObZ-104" parent="1">
          <mxGeometry width="50" height="50" relative="1" as="geometry">
            <mxPoint x="470" y="890" as="sourcePoint" />
            <mxPoint x="600" y="870" as="targetPoint" />
          </mxGeometry>
        </mxCell>
        <mxCell id="aFwNrgKFRGCG29cXAObZ-106" value="Precio.list" style="text;html=1;align=center;verticalAlign=middle;resizable=0;points=[];autosize=1;strokeColor=none;fillColor=none;" vertex="1" parent="1">
          <mxGeometry x="370" y="875" width="80" height="30" as="geometry" />
        </mxCell>
        <mxCell id="aFwNrgKFRGCG29cXAObZ-107" value="" style="ellipse;whiteSpace=wrap;html=1;aspect=fixed;" vertex="1" parent="1">
          <mxGeometry x="440" y="905" width="20" height="20" as="geometry" />
        </mxCell>
        <mxCell id="aFwNrgKFRGCG29cXAObZ-108" value="" style="endArrow=none;html=1;rounded=0;entryX=1;entryY=0.5;entryDx=0;entryDy=0;" edge="1" target="aFwNrgKFRGCG29cXAObZ-107" parent="1">
          <mxGeometry width="50" height="50" relative="1" as="geometry">
            <mxPoint x="470" y="915" as="sourcePoint" />
            <mxPoint x="600" y="895" as="targetPoint" />
          </mxGeometry>
        </mxCell>
        <mxCell id="aFwNrgKFRGCG29cXAObZ-109" value="&amp;nbsp;Precio.cost" style="text;html=1;align=center;verticalAlign=middle;resizable=0;points=[];autosize=1;strokeColor=none;fillColor=none;" vertex="1" parent="1">
          <mxGeometry x="360" y="900" width="90" height="30" as="geometry" />
        </mxCell>
        <mxCell id="aFwNrgKFRGCG29cXAObZ-110" value="" style="ellipse;whiteSpace=wrap;html=1;aspect=fixed;" vertex="1" parent="1">
          <mxGeometry x="440" y="939" width="20" height="20" as="geometry" />
        </mxCell>
        <mxCell id="aFwNrgKFRGCG29cXAObZ-111" value="" style="endArrow=none;html=1;rounded=0;entryX=1;entryY=0.5;entryDx=0;entryDy=0;" edge="1" target="aFwNrgKFRGCG29cXAObZ-110" parent="1">
          <mxGeometry width="50" height="50" relative="1" as="geometry">
            <mxPoint x="470" y="949" as="sourcePoint" />
            <mxPoint x="600" y="929" as="targetPoint" />
          </mxGeometry>
        </mxCell>
        <mxCell id="aFwNrgKFRGCG29cXAObZ-112" value="Nombre" style="text;html=1;align=center;verticalAlign=middle;resizable=0;points=[];autosize=1;strokeColor=none;fillColor=none;" vertex="1" parent="1">
          <mxGeometry x="375" y="934" width="70" height="30" as="geometry" />
        </mxCell>
        <mxCell id="aFwNrgKFRGCG29cXAObZ-113" value="Desc" style="text;html=1;align=center;verticalAlign=middle;resizable=0;points=[];autosize=1;strokeColor=none;fillColor=none;" vertex="1" parent="1">
          <mxGeometry x="615" y="1115" width="50" height="30" as="geometry" />
        </mxCell>
        <mxCell id="aFwNrgKFRGCG29cXAObZ-114" value="Material" style="text;html=1;align=center;verticalAlign=middle;resizable=0;points=[];autosize=1;strokeColor=none;fillColor=none;" vertex="1" parent="1">
          <mxGeometry x="380" y="1115" width="70" height="30" as="geometry" />
        </mxCell>
        <mxCell id="aFwNrgKFRGCG29cXAObZ-115" value="" style="ellipse;whiteSpace=wrap;html=1;aspect=fixed;" vertex="1" parent="1">
          <mxGeometry x="440" y="1120" width="20" height="20" as="geometry" />
        </mxCell>
        <mxCell id="aFwNrgKFRGCG29cXAObZ-116" value="" style="endArrow=none;html=1;rounded=0;entryX=1;entryY=0.5;entryDx=0;entryDy=0;" edge="1" target="aFwNrgKFRGCG29cXAObZ-115" parent="1">
          <mxGeometry width="50" height="50" relative="1" as="geometry">
            <mxPoint x="473" y="1130" as="sourcePoint" />
            <mxPoint x="603" y="1110" as="targetPoint" />
          </mxGeometry>
        </mxCell>
        <mxCell id="aFwNrgKFRGCG29cXAObZ-117" value="" style="ellipse;whiteSpace=wrap;html=1;aspect=fixed;" vertex="1" parent="1">
          <mxGeometry x="600" y="1120" width="20" height="20" as="geometry" />
        </mxCell>
        <mxCell id="aFwNrgKFRGCG29cXAObZ-118" value="" style="endArrow=none;html=1;rounded=0;entryX=0;entryY=0.5;entryDx=0;entryDy=0;exitX=1;exitY=0.5;exitDx=0;exitDy=0;" edge="1" target="aFwNrgKFRGCG29cXAObZ-117" parent="1">
          <mxGeometry width="50" height="50" relative="1" as="geometry">
            <mxPoint x="590" y="1130" as="sourcePoint" />
            <mxPoint x="825" y="905" as="targetPoint" />
          </mxGeometry>
        </mxCell>
        <mxCell id="aFwNrgKFRGCG29cXAObZ-119" value="" style="ellipse;whiteSpace=wrap;html=1;aspect=fixed;fillColor=#000000;" vertex="1" parent="1">
          <mxGeometry x="1010" y="570.0000000000002" width="20" height="20" as="geometry" />
        </mxCell>
        <mxCell id="aFwNrgKFRGCG29cXAObZ-120" value="" style="endArrow=none;html=1;rounded=0;entryX=0.5;entryY=1;entryDx=0;entryDy=0;" edge="1" target="aFwNrgKFRGCG29cXAObZ-119" parent="1">
          <mxGeometry width="50" height="50" relative="1" as="geometry">
            <mxPoint x="1020" y="611.0000000000002" as="sourcePoint" />
            <mxPoint x="1010" y="565.0000000000002" as="targetPoint" />
          </mxGeometry>
        </mxCell>
        <mxCell id="aFwNrgKFRGCG29cXAObZ-121" value="#Turno" style="text;html=1;align=center;verticalAlign=middle;resizable=0;points=[];autosize=1;strokeColor=none;fillColor=none;" vertex="1" parent="1">
          <mxGeometry x="990" y="535" width="60" height="30" as="geometry" />
        </mxCell>
        <mxCell id="aFwNrgKFRGCG29cXAObZ-124" value="" style="ellipse;whiteSpace=wrap;html=1;aspect=fixed;" vertex="1" parent="1">
          <mxGeometry x="1040" y="610" width="20" height="20" as="geometry" />
        </mxCell>
        <mxCell id="aFwNrgKFRGCG29cXAObZ-125" value="" style="endArrow=none;html=1;rounded=0;entryX=0;entryY=0.5;entryDx=0;entryDy=0;exitX=1;exitY=0.5;exitDx=0;exitDy=0;" edge="1" target="aFwNrgKFRGCG29cXAObZ-124" parent="1">
          <mxGeometry width="50" height="50" relative="1" as="geometry">
            <mxPoint x="1020" y="620" as="sourcePoint" />
            <mxPoint x="1255" y="395" as="targetPoint" />
          </mxGeometry>
        </mxCell>
        <mxCell id="aFwNrgKFRGCG29cXAObZ-126" value="" style="ellipse;whiteSpace=wrap;html=1;aspect=fixed;" vertex="1" parent="1">
          <mxGeometry x="1040" y="660" width="20" height="20" as="geometry" />
        </mxCell>
        <mxCell id="aFwNrgKFRGCG29cXAObZ-127" value="" style="endArrow=none;html=1;rounded=0;entryX=0;entryY=0.5;entryDx=0;entryDy=0;exitX=1;exitY=0.5;exitDx=0;exitDy=0;" edge="1" target="aFwNrgKFRGCG29cXAObZ-126" parent="1">
          <mxGeometry width="50" height="50" relative="1" as="geometry">
            <mxPoint x="1020" y="670" as="sourcePoint" />
            <mxPoint x="1255" y="445" as="targetPoint" />
          </mxGeometry>
        </mxCell>
        <mxCell id="aFwNrgKFRGCG29cXAObZ-128" value="fin" style="text;html=1;align=center;verticalAlign=middle;resizable=0;points=[];autosize=1;strokeColor=none;fillColor=none;" vertex="1" parent="1">
          <mxGeometry x="1060" y="605" width="40" height="30" as="geometry" />
        </mxCell>
        <mxCell id="aFwNrgKFRGCG29cXAObZ-129" value="inicio" style="text;html=1;align=center;verticalAlign=middle;resizable=0;points=[];autosize=1;strokeColor=none;fillColor=none;" vertex="1" parent="1">
          <mxGeometry x="1060" y="650" width="50" height="30" as="geometry" />
        </mxCell>
        <mxCell id="aFwNrgKFRGCG29cXAObZ-130" value="" style="ellipse;whiteSpace=wrap;html=1;aspect=fixed;fillColor=#000000;" vertex="1" parent="1">
          <mxGeometry x="1710" y="720" width="20" height="20" as="geometry" />
        </mxCell>
        <mxCell id="aFwNrgKFRGCG29cXAObZ-131" value="" style="endArrow=none;html=1;rounded=0;entryX=0.5;entryY=1;entryDx=0;entryDy=0;exitX=1;exitY=0;exitDx=0;exitDy=0;" edge="1" target="aFwNrgKFRGCG29cXAObZ-130" parent="1" source="aFwNrgKFRGCG29cXAObZ-25">
          <mxGeometry width="50" height="50" relative="1" as="geometry">
            <mxPoint x="1715" y="745" as="sourcePoint" />
            <mxPoint x="1710" y="700" as="targetPoint" />
          </mxGeometry>
        </mxCell>
        <mxCell id="aFwNrgKFRGCG29cXAObZ-132" value="#Domicilio" style="text;html=1;align=center;verticalAlign=middle;resizable=0;points=[];autosize=1;strokeColor=none;fillColor=none;" vertex="1" parent="1">
          <mxGeometry x="1680" y="690" width="80" height="30" as="geometry" />
        </mxCell>
        <mxCell id="aFwNrgKFRGCG29cXAObZ-133" value="" style="ellipse;whiteSpace=wrap;html=1;aspect=fixed;" vertex="1" parent="1">
          <mxGeometry x="1740" y="750" width="20" height="20" as="geometry" />
        </mxCell>
        <mxCell id="aFwNrgKFRGCG29cXAObZ-134" value="" style="endArrow=none;html=1;rounded=0;entryX=0;entryY=0.5;entryDx=0;entryDy=0;exitX=1;exitY=0.5;exitDx=0;exitDy=0;" edge="1" target="aFwNrgKFRGCG29cXAObZ-133" parent="1">
          <mxGeometry width="50" height="50" relative="1" as="geometry">
            <mxPoint x="1720" y="760" as="sourcePoint" />
            <mxPoint x="1955" y="535" as="targetPoint" />
          </mxGeometry>
        </mxCell>
        <mxCell id="aFwNrgKFRGCG29cXAObZ-135" value="Direccion" style="text;html=1;align=center;verticalAlign=middle;resizable=0;points=[];autosize=1;strokeColor=none;fillColor=none;" vertex="1" parent="1">
          <mxGeometry x="1755" y="745" width="70" height="30" as="geometry" />
        </mxCell>
        <mxCell id="aFwNrgKFRGCG29cXAObZ-136" value="" style="ellipse;whiteSpace=wrap;html=1;aspect=fixed;fillColor=#000000;" vertex="1" parent="1">
          <mxGeometry x="2010" y="935.0000000000002" width="20" height="20" as="geometry" />
        </mxCell>
        <mxCell id="aFwNrgKFRGCG29cXAObZ-137" value="" style="endArrow=none;html=1;rounded=0;entryX=0.5;entryY=1;entryDx=0;entryDy=0;" edge="1" target="aFwNrgKFRGCG29cXAObZ-136" parent="1">
          <mxGeometry width="50" height="50" relative="1" as="geometry">
            <mxPoint x="2020" y="976.0000000000002" as="sourcePoint" />
            <mxPoint x="2010" y="930.0000000000002" as="targetPoint" />
          </mxGeometry>
        </mxCell>
        <mxCell id="aFwNrgKFRGCG29cXAObZ-138" value="#Telefono" style="text;html=1;align=center;verticalAlign=middle;resizable=0;points=[];autosize=1;strokeColor=none;fillColor=none;" vertex="1" parent="1">
          <mxGeometry x="1980" y="905" width="80" height="30" as="geometry" />
        </mxCell>
        <mxCell id="aFwNrgKFRGCG29cXAObZ-139" value="" style="ellipse;whiteSpace=wrap;html=1;aspect=fixed;" vertex="1" parent="1">
          <mxGeometry x="2040" y="965" width="20" height="20" as="geometry" />
        </mxCell>
        <mxCell id="aFwNrgKFRGCG29cXAObZ-140" value="" style="endArrow=none;html=1;rounded=0;entryX=0;entryY=0.5;entryDx=0;entryDy=0;exitX=1;exitY=0.5;exitDx=0;exitDy=0;" edge="1" target="aFwNrgKFRGCG29cXAObZ-139" parent="1">
          <mxGeometry width="50" height="50" relative="1" as="geometry">
            <mxPoint x="2020" y="975" as="sourcePoint" />
            <mxPoint x="2255" y="750" as="targetPoint" />
          </mxGeometry>
        </mxCell>
        <mxCell id="aFwNrgKFRGCG29cXAObZ-141" value="Numero" style="text;html=1;align=center;verticalAlign=middle;resizable=0;points=[];autosize=1;strokeColor=none;fillColor=none;" vertex="1" parent="1">
          <mxGeometry x="2055" y="958" width="70" height="30" as="geometry" />
        </mxCell>
        <mxCell id="aFwNrgKFRGCG29cXAObZ-142" value="" style="ellipse;whiteSpace=wrap;html=1;aspect=fixed;fillColor=#000000;" vertex="1" parent="1">
          <mxGeometry x="1050" y="939.0000000000002" width="20" height="20" as="geometry" />
        </mxCell>
        <mxCell id="aFwNrgKFRGCG29cXAObZ-143" value="" style="endArrow=none;html=1;rounded=0;entryX=0.5;entryY=1;entryDx=0;entryDy=0;" edge="1" target="aFwNrgKFRGCG29cXAObZ-142" parent="1">
          <mxGeometry width="50" height="50" relative="1" as="geometry">
            <mxPoint x="1060" y="980.0000000000002" as="sourcePoint" />
            <mxPoint x="1050" y="934.0000000000002" as="targetPoint" />
          </mxGeometry>
        </mxCell>
        <mxCell id="aFwNrgKFRGCG29cXAObZ-144" value="#Comprobante" style="text;html=1;align=center;verticalAlign=middle;resizable=0;points=[];autosize=1;strokeColor=none;fillColor=none;" vertex="1" parent="1">
          <mxGeometry x="1010" y="915" width="100" height="30" as="geometry" />
        </mxCell>
        <mxCell id="aFwNrgKFRGCG29cXAObZ-149" value="" style="ellipse;whiteSpace=wrap;html=1;aspect=fixed;" vertex="1" parent="1">
          <mxGeometry x="1070" y="965" width="20" height="20" as="geometry" />
        </mxCell>
        <mxCell id="aFwNrgKFRGCG29cXAObZ-150" value="" style="endArrow=none;html=1;rounded=0;entryX=0;entryY=0.5;entryDx=0;entryDy=0;exitX=1;exitY=0.5;exitDx=0;exitDy=0;" edge="1" target="aFwNrgKFRGCG29cXAObZ-149" parent="1">
          <mxGeometry width="50" height="50" relative="1" as="geometry">
            <mxPoint x="1060" y="975" as="sourcePoint" />
            <mxPoint x="1295" y="750" as="targetPoint" />
          </mxGeometry>
        </mxCell>
        <mxCell id="aFwNrgKFRGCG29cXAObZ-151" value="Cant" style="text;html=1;align=center;verticalAlign=middle;resizable=0;points=[];autosize=1;strokeColor=none;fillColor=none;" vertex="1" parent="1">
          <mxGeometry x="1080" y="960" width="50" height="30" as="geometry" />
        </mxCell>
        <mxCell id="aFwNrgKFRGCG29cXAObZ-152" value="" style="ellipse;whiteSpace=wrap;html=1;aspect=fixed;fillColor=#000000;" vertex="1" parent="1">
          <mxGeometry x="1380" y="945.0000000000002" width="20" height="20" as="geometry" />
        </mxCell>
        <mxCell id="aFwNrgKFRGCG29cXAObZ-153" value="" style="endArrow=none;html=1;rounded=0;entryX=0.5;entryY=1;entryDx=0;entryDy=0;" edge="1" target="aFwNrgKFRGCG29cXAObZ-152" parent="1">
          <mxGeometry width="50" height="50" relative="1" as="geometry">
            <mxPoint x="1390" y="980.0000000000002" as="sourcePoint" />
            <mxPoint x="1380" y="934.0000000000002" as="targetPoint" />
          </mxGeometry>
        </mxCell>
        <mxCell id="aFwNrgKFRGCG29cXAObZ-154" value="#Compra" style="text;html=1;align=center;verticalAlign=middle;resizable=0;points=[];autosize=1;strokeColor=none;fillColor=none;" vertex="1" parent="1">
          <mxGeometry x="1355" y="920" width="70" height="30" as="geometry" />
        </mxCell>
        <mxCell id="aFwNrgKFRGCG29cXAObZ-155" value="" style="ellipse;whiteSpace=wrap;html=1;aspect=fixed;" vertex="1" parent="1">
          <mxGeometry x="1260" y="938" width="20" height="20" as="geometry" />
        </mxCell>
        <mxCell id="aFwNrgKFRGCG29cXAObZ-156" value="" style="endArrow=none;html=1;rounded=0;entryX=0.5;entryY=1;entryDx=0;entryDy=0;" edge="1" target="aFwNrgKFRGCG29cXAObZ-155" parent="1">
          <mxGeometry width="50" height="50" relative="1" as="geometry">
            <mxPoint x="1270" y="975" as="sourcePoint" />
            <mxPoint x="1400" y="955" as="targetPoint" />
          </mxGeometry>
        </mxCell>
        <mxCell id="aFwNrgKFRGCG29cXAObZ-157" value="Forma pago" style="text;html=1;align=center;verticalAlign=middle;resizable=0;points=[];autosize=1;strokeColor=none;fillColor=none;" vertex="1" parent="1">
          <mxGeometry x="1225" y="915" width="90" height="30" as="geometry" />
        </mxCell>
        <mxCell id="aFwNrgKFRGCG29cXAObZ-158" value="" style="ellipse;whiteSpace=wrap;html=1;aspect=fixed;" vertex="1" parent="1">
          <mxGeometry x="1260" y="1050" width="20" height="20" as="geometry" />
        </mxCell>
        <mxCell id="aFwNrgKFRGCG29cXAObZ-159" value="" style="endArrow=none;html=1;rounded=0;entryX=0.5;entryY=0;entryDx=0;entryDy=0;exitX=0;exitY=1;exitDx=0;exitDy=0;" edge="1" target="aFwNrgKFRGCG29cXAObZ-158" parent="1" source="aFwNrgKFRGCG29cXAObZ-33">
          <mxGeometry width="50" height="50" relative="1" as="geometry">
            <mxPoint x="1315" y="1080" as="sourcePoint" />
            <mxPoint x="1445" y="1060" as="targetPoint" />
          </mxGeometry>
        </mxCell>
        <mxCell id="aFwNrgKFRGCG29cXAObZ-160" value="Fecha pago" style="text;html=1;align=center;verticalAlign=middle;resizable=0;points=[];autosize=1;strokeColor=none;fillColor=none;" vertex="1" parent="1">
          <mxGeometry x="1225" y="1070" width="90" height="30" as="geometry" />
        </mxCell>
      </root>
    </mxGraphModel>
  </diagram>
</mxfile>
